<?xml version="1.0" standalone="no"?>
<!DOCTYPE svg PUBLIC "-//W3C//DTD SVG 20010904//EN"
 "http://www.w3.org/TR/2001/REC-SVG-20010904/DTD/svg10.dtd">
<svg version="1.0" xmlns="http://www.w3.org/2000/svg"
 width="190.000000pt" height="213.000000pt" viewBox="0 0 190.000000 213.000000"
 preserveAspectRatio="xMidYMid meet">
<metadata>
Created by potrace 1.16, written by Peter Selinger 2001-2019
</metadata>
<g transform="translate(0.000000,213.000000) scale(0.100000,-0.100000)"
fill="#000000" stroke="none">
<path d="M850 1849 c-248 -38 -456 -197 -564 -431 -52 -110 -66 -199 -66 -401
l0 -174 -24 -11 c-82 -37 -148 -139 -154 -239 -8 -120 60 -235 170 -284 52
-23 61 -24 353 -26 l300 -2 -60 18 c-100 29 -166 69 -246 150 -135 135 -171
247 -167 509 l3 157 130 6 c181 8 307 35 375 79 116 76 147 99 186 143 48 54
101 144 129 220 10 26 21 47 25 47 15 0 105 -77 153 -129 105 -118 137 -232
137 -501 0 -290 -33 -393 -170 -530 -80 -81 -149 -124 -245 -152 l-60 -17 300
2 c292 2 301 3 353 26 65 29 134 104 156 168 43 125 -6 268 -114 335 l-50 31
0 176 c0 190 -11 267 -53 371 -75 185 -225 337 -407 411 -119 48 -268 66 -390
48z"/>
</g>
</svg>
