<?xml version="1.0" standalone="no"?>
<!DOCTYPE svg PUBLIC "-//W3C//DTD SVG 20010904//EN"
 "http://www.w3.org/TR/2001/REC-SVG-20010904/DTD/svg10.dtd">
<svg version="1.0" xmlns="http://www.w3.org/2000/svg"
 width="199.000000pt" height="213.000000pt" viewBox="0 0 199.000000 213.000000"
 preserveAspectRatio="xMidYMid meet">
<metadata>
Created by potrace 1.16, written by Peter Selinger 2001-2019
</metadata>
<g transform="translate(0.000000,213.000000) scale(0.100000,-0.100000)"
fill="#000000" stroke="none">
<path d="M433 1791 c-102 -29 -173 -71 -249 -147 -108 -107 -153 -214 -154
-364 0 -152 45 -257 160 -368 119 -115 691 -593 730 -610 45 -19 125 -19 171
0 40 17 721 607 761 660 269 353 5 848 -452 848 -134 0 -246 -38 -357 -121
l-52 -39 -43 37 c-52 44 -163 97 -236 112 -77 16 -207 12 -279 -8z m222 -310
c172 -78 181 -317 15 -404 -48 -25 -64 -28 -120 -25 -77 5 -133 36 -177 101
-24 37 -28 51 -28 118 0 67 4 81 30 124 57 92 182 131 280 86z"/>
</g>
</svg>
